<svg width="136" height="188" viewBox="0 0 136 188" fill="none" xmlns="http://www.w3.org/2000/svg">
<g id="freepik  device 1  inject 10">
<g id="freepik  Monitor  inject 10">
<path id="Vector" d="M80.9522 185.313L102.642 172.781C104.877 171.487 105.995 169.796 105.995 168.106C105.995 166.416 105.995 165.086 105.995 165.086L85.5787 153.509C84.9511 153.098 84.4288 152.546 84.054 151.896C83.6793 151.246 83.4625 150.517 83.4211 149.768V123.036L45.5533 144.924V171.656C45.5895 172.401 45.8005 173.128 46.1692 173.776C46.5378 174.425 47.0538 174.978 47.6755 175.39L64.7242 185.291C69.2304 187.894 76.4814 187.894 80.9522 185.313Z" fill="#37474F"/>
<path id="Vector_2" d="M54.6436 176.388V179.393L47.7039 175.39C47.0762 174.979 46.554 174.427 46.1792 173.777C45.8044 173.127 45.5876 172.398 45.5463 171.649V144.924L52.7619 140.758C52.9175 142.59 53.0731 144.485 53.2288 146.331L48.1637 149.259V170.143C48.1978 170.889 48.4077 171.617 48.7765 172.268C49.1453 172.918 49.6625 173.472 50.2859 173.884L54.6436 176.388Z" fill="#263238"/>
<path id="Vector_3" d="M48.1636 170.15C48.201 170.896 48.4124 171.623 48.7809 172.272C49.1494 172.922 49.6648 173.476 50.2859 173.891L64.7171 182.3C69.195 184.881 76.446 184.881 80.9169 182.3L102.613 169.768C107.091 167.187 107.091 163 102.613 160.419L88.1679 152.003C87.5386 151.594 87.0152 151.041 86.6402 150.391C86.2652 149.741 86.0494 149.011 86.0102 148.262V127.385L48.1636 149.259V170.15Z" fill="#455A64"/>
<path id="Vector_4" opacity="0.15" d="M92.6033 154.542L88.2103 152.003C87.5811 151.594 87.0576 151.041 86.6826 150.391C86.3076 149.741 86.0918 149.011 86.0527 148.262V127.385L48.1636 149.259V170.15C48.201 170.896 48.4124 171.623 48.7809 172.272C49.1494 172.922 49.6648 173.476 50.2859 173.891L54.6082 176.381L92.6033 154.542Z" fill="#103E13"/>
<path id="Vector_5" d="M3.03062 186.635C3.8497 187.031 4.75042 187.228 5.65987 187.21C6.56931 187.193 7.46193 186.962 8.26547 186.536C26.8917 175.786 114.285 125.341 132.912 114.599C133.696 114.085 134.348 113.394 134.816 112.582C135.284 111.77 135.555 110.86 135.607 109.924V5.57515C135.644 4.65096 135.428 3.73415 134.981 2.92421C134.534 2.11428 133.874 1.44217 133.072 0.98083C132.27 0.519494 131.357 0.286558 130.432 0.307304C129.507 0.328051 128.606 0.601688 127.825 1.09851L3.20039 73.0359C2.42155 73.5527 1.77464 74.2448 1.31151 75.0565C0.848379 75.8683 0.581906 76.7773 0.533447 77.7106V182.059C0.563635 182.964 0.805204 183.849 1.23882 184.643C1.67244 185.438 2.28608 186.12 3.03062 186.635Z" fill="#37474F"/>
<path id="Vector_6" d="M8.26553 186.536L132.912 114.592C133.697 114.079 134.35 113.389 134.819 112.576C135.287 111.764 135.557 110.853 135.607 109.917V5.57516C135.607 3.84957 134.397 3.1565 132.912 4.0193L8.26553 75.9567C7.48026 76.4691 6.82695 77.1595 6.35864 77.9717C5.89034 78.784 5.62024 79.6952 5.57028 80.6313V184.98C5.56321 186.699 6.77289 187.392 8.26553 186.536Z" fill="#455A64"/>
<path id="Vector_7" d="M9.13568 172.392V81.869C9.16703 81.2941 9.33319 80.7347 9.62075 80.2359C9.90831 79.7371 10.3092 79.313 10.791 78.9977L130.379 9.97402C131.292 9.44361 132.035 9.87501 132.035 10.9288V101.452C132.004 102.028 131.837 102.59 131.548 103.09C131.259 103.59 130.856 104.015 130.372 104.33L10.791 173.354C9.87847 173.877 9.13568 173.453 9.13568 172.392Z" fill="#4CAF4F"/>
<path id="Vector_8" opacity="0.75" d="M9.13568 172.392V81.869C9.16703 81.2941 9.33319 80.7347 9.62075 80.2359C9.90831 79.7371 10.3092 79.313 10.791 78.9977L130.379 9.97402C131.292 9.44361 132.035 9.87501 132.035 10.9288V101.452C132.004 102.028 131.837 102.59 131.548 103.09C131.259 103.59 130.856 104.015 130.372 104.33L10.791 173.354C9.87847 173.877 9.13568 173.453 9.13568 172.392Z" fill="white"/>
<path id="Vector_9" d="M1.29755 75.0515L6.36263 77.9723C5.87961 78.7812 5.60494 79.6973 5.56325 80.6385V184.98C5.56325 186.55 6.63144 187.427 8.26557 186.536C7.46363 186.967 6.57048 187.201 5.66011 187.218C4.74974 187.235 3.84838 187.036 3.03071 186.635C2.28996 186.193 1.67073 185.574 1.22868 184.833C0.786621 184.092 0.535597 183.253 0.498169 182.392V77.7248C0.533881 76.7804 0.808938 75.8605 1.29755 75.0515Z" fill="#263238"/>
<path id="Vector_10" d="M65.0779 146.55L76.0923 140.185C76.6441 139.874 77.0827 140.093 77.0827 140.688C77.058 141.02 76.9554 141.341 76.7834 141.626C76.6113 141.911 76.3746 142.152 76.0923 142.328L65.0779 148.693C64.5332 149.011 64.0875 148.785 64.0875 148.198C64.1112 147.865 64.2132 147.542 64.3853 147.256C64.5574 146.969 64.7947 146.728 65.0779 146.55Z" fill="#4CAF4F"/>
</g>
</g>
</svg>
