<svg width="88" height="180" viewBox="0 0 88 180" fill="none" xmlns="http://www.w3.org/2000/svg">
<g id="freepik  Character  inject 10">
<g id="freepik  character  inject 10">
<g id="freepik  Bottom  inject 10">
<path id="Vector" d="M79.4207 160.495C79.923 161.485 80.1479 162.592 80.0715 163.699C80.022 164.668 79.4419 165.926 79.7037 168.112C79.9654 170.297 80.4677 170.99 80.7011 172.532C80.8382 173.239 80.8331 173.967 80.6862 174.672C80.5392 175.378 80.2533 176.047 79.8452 176.641C78.9397 178.112 76.9448 179.279 72.9974 179.137C69.8141 179.024 68.5266 177.39 68.4558 175.516L79.4207 160.495Z" fill="#263238"/>
<path id="Vector_2" d="M78.5152 155.983C78.6131 156.39 78.677 156.804 78.7062 157.221C78.8265 157.963 79.0458 158.635 79.2226 159.392C79.2721 159.583 79.3146 159.774 79.357 159.965C79.6612 161.429 79.357 162.942 79.357 164.434C79.4792 166.197 79.7898 167.942 80.2837 169.639C80.9911 172.737 81.1114 174.809 78.402 176.952C76.9872 178.083 75.4096 178.119 73.5987 178.168C72.2059 178.217 70.8264 177.884 69.6089 177.207C68.4487 176.351 68.4629 175.629 68.4558 175.354C68.3497 172.065 69.5381 168.239 69.7786 164.958C69.8681 164.074 69.8871 163.185 69.8352 162.299C69.7221 161.209 69.3471 160.127 69.2269 159.031C69.1424 158.623 69.1946 158.198 69.3754 157.822C69.5583 157.614 69.7837 157.448 70.0363 157.334C70.2889 157.221 70.5628 157.163 70.8398 157.164C72.2546 156.973 73.726 156.832 75.1762 156.726C75.5173 156.661 75.8702 156.732 76.1595 156.924C76.4425 157.178 76.4496 157.631 76.5274 157.977C76.6052 158.324 76.874 158.77 77.2348 158.685C77.3541 158.646 77.4594 158.573 77.5374 158.475C77.6154 158.377 77.6627 158.258 77.6734 158.133C77.7087 157.893 77.8149 156.011 77.8078 155.736C77.8361 155.75 78.3454 155.672 78.5152 155.983Z" fill="#37474F"/>
<path id="Vector_3" d="M30.6092 166.895C30.3762 167.476 30.3762 168.125 30.6092 168.706C30.8426 169.243 33.5379 170.912 37.2659 170.827C40.0247 170.739 42.7103 169.919 45.0475 168.451C46.4977 167.567 47.9833 167.454 49.8296 167.419C51.676 167.383 53.8407 166.711 54.4702 165.884C54.707 165.074 54.707 164.212 54.4702 163.402L30.6092 166.895Z" fill="#263238"/>
<path id="Vector_4" d="M44.1067 155.884C43.9638 156.15 43.8363 156.424 43.7247 156.704C43.2677 157.715 42.5619 158.593 41.6732 159.257C40.3869 160.147 39.0061 160.892 37.5561 161.478C36.6365 161.888 35.6744 162.001 34.7264 162.327C33.6757 162.663 32.6633 163.109 31.7058 163.656C30.2061 164.576 29.9231 167.044 31.5431 168.09C32.9579 168.989 36.686 170.057 40.6899 169.095C42.8758 168.571 45.3589 166.358 48.2027 166.266C50.0066 166.202 53.4375 165.834 54.6543 164.512C55.0999 162.539 54.6118 161.98 54.2086 160.269C53.9929 159.322 53.8791 158.354 53.869 157.383C53.869 156.874 54.2086 155.41 53.1616 155.262L53.0555 156.358C53.0555 156.358 52.8503 156.726 51.7326 156.924C51.3719 156.987 51.0889 157.461 50.8979 157.893C50.7069 158.324 50.5866 158.656 50.1905 158.649C50.0669 158.632 49.9502 158.582 49.852 158.505C49.7539 158.428 49.6778 158.327 49.6316 158.211C49.5464 157.98 49.4778 157.744 49.4265 157.504C49.2834 157.118 49.058 156.769 48.766 156.479C48.4741 156.19 48.1225 155.967 47.7358 155.827C47.0943 155.611 46.4294 155.471 45.755 155.41C45.2457 155.332 44.8212 155.113 44.3402 155.552C44.2482 155.652 44.1697 155.764 44.1067 155.884Z" fill="#37474F"/>
<path id="Vector_5" d="M73.1318 71.7686C73.8392 82.5677 74.2142 88.8548 76.1454 118.324C77.5666 123.368 78.4697 128.543 78.8407 133.77C79.2227 140.29 80.1494 159.936 80.1494 159.936C80.1494 159.936 74.8933 164.25 68.8308 162.256C68.8308 162.256 63.3271 133.374 61.4029 124.364C59.5637 115.715 58.1488 106.259 58.1488 106.259L56.7835 118.324C56.7835 118.324 57.0241 123.692 56.8543 131.705C56.7694 135.99 54.732 159.187 54.732 159.187C54.732 159.187 47.3537 162.539 42.3735 158.232C42.3735 158.232 42.0128 120.616 41.935 116.74C41.8501 112.313 42.6424 67.7941 42.6424 67.7941L73.1318 71.7686Z" fill="#455A64"/>
<path id="Vector_6" d="M58.1205 106.266L54.35 86.5139C54.35 86.5139 48.5209 86.0048 45.3021 82.7516C45.3021 82.7516 45.8751 85.9411 53.2039 87.8506L56.8471 106.04L56.7835 118.324L58.1205 106.266Z" fill="#37474F"/>
<path id="Vector_7" d="M79.9795 156.393C77.7388 158.333 74.8571 159.371 71.8938 159.307C71.8938 159.307 76.9164 158.557 79.93 155.248L79.9795 156.393Z" fill="#37474F"/>
<path id="Vector_8" d="M54.9654 156.45C54.9654 156.45 49.8225 158.246 45.4861 156.874C45.4861 156.874 48.8322 159.123 54.8876 157.277L54.9654 156.45Z" fill="#37474F"/>
</g>
<g id="freepik  Top  inject 10">
<path id="Vector_9" d="M0.720943 31.5849C0.684385 31.416 0.612026 31.2568 0.508728 31.1182C0.328873 30.7919 0.238091 30.4241 0.245542 30.0517C0.252992 29.6792 0.358411 29.3153 0.551171 28.9965C0.676229 28.8408 0.780834 28.6696 0.862434 28.4873C1.00392 28.0984 0.827064 27.6599 0.862434 27.2426C0.989769 25.3827 4.35704 26.196 5.42524 26.5354C5.7365 26.6415 7.54748 27.1083 8.25489 27.3558C8.1916 26.3351 8.29192 25.3109 8.55202 24.3219C9.03306 22.3912 10.6247 22.5892 10.7167 23.7702C10.8043 24.8395 11.0034 25.8966 11.3109 26.9244C11.509 27.6811 12.0183 28.4308 12.3084 29.5482C12.7258 30.9626 12.6196 31.7546 14.0345 33.0842C16.1567 35.0856 27.0509 42.4689 27.0509 42.4689C29.7673 40.7221 40.2795 34.2582 44.2198 32.1224C48.0328 30.0503 49.9782 31.7193 49.9782 31.7193L46.6533 43.9611C46.6533 43.9611 33.5449 50.722 28.8194 52.7871C25.5229 54.2015 24.0656 53.4094 20.4295 50.1704C17.5432 47.4406 13.7373 43.4943 9.62728 39.8593C7.98608 38.4024 6.79763 37.6599 5.63748 37.6033C5.19888 37.6033 4.76028 37.5538 4.32876 37.5113C3.35253 37.3982 2.20651 37.1577 1.73254 36.1889C1.56983 35.8635 1.49202 35.4816 1.35761 35.1563C1.15246 34.633 0.827051 34.1662 0.650197 33.6429C0.504471 33.2921 0.455622 32.9087 0.508728 32.5326C0.508728 32.2285 0.763388 31.9244 0.720943 31.5849Z" fill="#E8F5E9"/>
<path id="Vector_10" d="M50.6714 30.7788C47.3183 30.7788 46.0166 30.7788 41.758 33.1975C37.4994 35.6161 29.1943 41.1111 29.1943 41.1111C29.1943 41.1111 32.9153 43.1833 33.6581 50.5382L47.099 44.2299L50.6714 30.7788Z" fill="#455A64"/>
<path id="Vector_11" d="M6.96028 28.4803C8.07092 28.7491 8.41754 29.4492 8.49535 31.0122C8.5378 31.9386 8.92688 33.6288 9.98092 34.2441C9.49295 34.2265 9.0218 34.0613 8.62976 33.7703C8.12043 33.3106 7.98603 33.2682 7.73844 33.5652C7.55547 33.7646 7.32748 33.9173 7.07347 34.0107C7.25553 34.1929 7.37385 34.429 7.41081 34.6839C7.44778 34.9388 7.4014 35.1988 7.2786 35.4251C6.84708 36.2597 4.67533 36.4223 2.83606 35.6232C2.83606 35.6232 5.78597 36.3304 6.37312 35.3686C6.96027 34.4068 5.37567 33.3601 4.25088 33.1267C4.25088 33.1267 7.08054 33.6005 7.4484 32.66C7.81625 31.7194 6.61365 31.1041 4.94415 30.8C4.94415 30.8 7.27861 31.0617 7.61817 30.2484C7.7453 29.9244 7.74849 29.5649 7.62711 29.2387C7.50573 28.9125 7.26831 28.6425 6.96028 28.4803Z" fill="#C8E6C9"/>
<path id="Vector_12" d="M27.0226 42.4902C28.4944 43.4728 29.6339 44.8783 30.2908 46.5213C30.2908 46.5213 30.5242 43.4166 27.9705 41.889L27.0226 42.4902Z" fill="#C8E6C9"/>
<path id="Vector_13" d="M42.2391 42.872C42.6564 34.5482 46.0096 31.1889 50.6714 30.7787L61.1482 30.0715C63.9779 30.7292 71.335 32.1437 71.335 32.1437C74.3839 33.056 76.5274 41.005 75.8129 45.5311C75.0984 50.0573 73.6058 53.5085 73.1884 61.1251C73.3087 68.3387 73.4148 69.7672 73.4148 72.5961C66.8995 76.7332 49.3981 77.596 42.5149 73.4447C42.5149 73.4447 42.3947 66.4716 42.2532 62.0304C42.0127 54.4137 42.0976 45.7362 42.2391 42.872Z" fill="#4CAF4F"/>
<path id="Vector_14" d="M44.9909 7.56103C44.5696 7.80148 44.2211 8.15112 43.982 8.57307C43.743 8.99502 43.6223 9.47365 43.6326 9.95847C43.616 10.6846 43.8235 11.3982 44.2269 12.0023C44.8369 12.7728 45.6811 13.3239 46.6321 13.5723C47.0419 13.6704 47.4421 13.8053 47.8276 13.9754C48.3079 14.3178 48.7576 14.7011 49.1717 15.1211C49.8154 15.6162 50.4521 16.1253 51.11 16.6062C52.4145 17.5802 53.7776 18.473 55.1918 19.2795C56.5507 20.0572 57.9701 20.7242 59.4362 21.2738C60.9855 21.8467 62.2659 21.3446 63.9212 21.4931L63.6807 25.9768C63.6807 25.9768 64.2325 24.9443 64.8621 23.7137C65.4068 22.6529 67.6918 17.2498 67.6918 17.2498C68.5831 15.1282 69.715 12.9075 69.5805 10.5384C69.4674 8.62185 69.0854 6.93869 67.6281 6.1254C67.5078 3.9189 67.0056 2.84394 65.4563 1.6629C64.3132 0.890163 63.0003 0.404927 61.6292 0.248482C60.0806 0.0696848 58.5139 0.124513 56.9815 0.411137C54.6895 0.778886 52.3975 1.36588 50.0772 1.24565C48.8372 1.11352 47.5839 1.19242 46.3703 1.47902C45.5994 1.72897 44.9301 2.22146 44.4622 2.88297C43.9943 3.54448 43.7529 4.33953 43.7741 5.14944C43.7246 5.99102 44.3966 7.37716 44.9909 7.56103Z" fill="#37474F"/>
<path id="Vector_15" d="M59.5069 8.13388C59.5069 9.5483 60.8086 11.5497 62.7893 13.2753C62.5554 14.5842 62.5915 15.9271 62.8954 17.2215C63.017 17.6238 63.2034 18.0036 63.4472 18.346C63.5376 18.4893 63.6587 18.6106 63.8019 18.7011C63.9451 18.7917 64.1067 18.8491 64.2749 18.8693C64.7347 18.8693 64.9186 18.6289 65.0601 18.2682C65.269 17.8112 65.5052 17.3672 65.7675 16.9386C65.8843 16.7557 66.0194 16.5851 66.1707 16.4295C66.8782 15.7859 68.9226 15.015 69.8776 17.1932C70.8326 19.3714 69.0428 22.4549 67.3875 22.9146C64.5578 23.7137 63.9141 21.7689 63.9141 21.7689L63.9636 31.2031C63.1642 33.5934 58.7358 35.9202 55.1705 35.4463C51.6051 34.9725 52.737 32.8226 54.1872 31.3657L54.0032 28.0913C52.7341 28.2171 51.4537 28.1695 50.1974 27.9499C48.7189 27.667 47.5021 26.2809 46.8867 24.0249C45.9063 19.7267 45.7622 15.28 46.4622 10.9274C46.9999 8.26825 47.6577 7.12257 47.9761 6.8114C47.9761 7.39131 49.0867 9.16641 51.9659 9.56245C55.0078 10.0009 57.3139 9.03911 59.5069 8.13388Z" fill="#E8F5E9"/>
<path id="Vector_16" d="M53.9891 28.1055C56.6207 27.865 58.7571 27.5044 60.2427 26.6911C61.3321 26.1182 62.273 24.329 62.5559 23.6925C62.5559 23.6925 62.4852 26.1395 61.0208 27.4973C58.9552 29.4138 54.067 29.4138 54.067 29.4138L53.9891 28.1055Z" fill="#C8E6C9"/>
<path id="Vector_17" d="M55.3687 16.097C55.3702 16.284 55.4266 16.4665 55.5309 16.6217C55.6352 16.7769 55.7828 16.8981 55.9554 16.9702C56.1279 17.0423 56.3179 17.0622 56.5017 17.0273C56.6854 16.9924 56.8549 16.9044 56.9891 16.7741C57.1233 16.6438 57.2162 16.477 57.2564 16.2944C57.2966 16.1118 57.2822 15.9214 57.2151 15.7468C57.148 15.5723 57.0311 15.4213 56.8789 15.3125C56.7267 15.2038 56.546 15.1422 56.359 15.1352C56.2308 15.1334 56.1035 15.1568 55.9844 15.2041C55.8652 15.2514 55.7565 15.3217 55.6646 15.411C55.5726 15.5004 55.4991 15.6069 55.4484 15.7246C55.3976 15.8423 55.3705 15.9689 55.3687 16.097Z" fill="#263238"/>
<path id="Vector_18" d="M55.7153 12.9782L58.0286 13.933C58.149 13.6173 58.1427 13.2672 58.0108 12.9561C57.879 12.645 57.6318 12.397 57.3212 12.264C57.1692 12.2018 57.0062 12.171 56.842 12.1735C56.6778 12.176 56.5158 12.2117 56.3657 12.2784C56.2157 12.3451 56.0807 12.4415 55.9689 12.5618C55.8572 12.6821 55.7709 12.8237 55.7153 12.9782Z" fill="#263238"/>
<path id="Vector_19" d="M56.6208 21.2455L53.0837 22.6599C53.1676 22.897 53.2986 23.1147 53.469 23.2997C53.6394 23.4848 53.8456 23.6334 54.075 23.7365C54.3045 23.8396 54.5525 23.8952 54.804 23.8997C55.0556 23.9043 55.3054 23.8579 55.5385 23.7632C56.0076 23.5626 56.3817 23.1893 56.5831 22.7206C56.7846 22.252 56.7981 21.7238 56.6208 21.2455Z" fill="#388E3B"/>
<path id="Vector_20" d="M54.5622 23.7278C54.559 23.7867 54.559 23.8457 54.5622 23.9046C54.8942 23.9582 55.2345 23.919 55.5455 23.7915C55.902 23.639 56.2051 23.3842 56.4167 23.0594C56.6282 22.7347 56.7387 22.3544 56.734 21.9669C56.6086 21.9388 56.4805 21.9246 56.352 21.9244C55.876 21.9282 55.4208 22.1198 55.0856 22.4576C54.7503 22.7954 54.5622 23.252 54.5622 23.7278Z" fill="#C8E6C9"/>
<path id="Vector_21" d="M47.0566 13.8764L49.3415 12.9924C49.2888 12.8424 49.2064 12.7045 49.0992 12.5871C48.992 12.4697 48.8621 12.3751 48.7175 12.3091C48.5728 12.2431 48.4163 12.2069 48.2573 12.2028C48.0983 12.1987 47.9402 12.2267 47.7923 12.2852C47.4845 12.3998 47.2345 12.6313 47.0967 12.9294C46.9589 13.2274 46.9445 13.5678 47.0566 13.8764Z" fill="#263238"/>
<path id="Vector_22" d="M47.6437 15.8919C47.636 16.0203 47.6541 16.149 47.6967 16.2704C47.7393 16.3918 47.8057 16.5034 47.892 16.5989C47.9783 16.6943 48.0827 16.7717 48.1991 16.8263C48.3156 16.881 48.4418 16.912 48.5704 16.9174C48.7689 16.9314 48.967 16.8857 49.1393 16.7863C49.3116 16.6869 49.4503 16.5382 49.5374 16.3594C49.6245 16.1806 49.6562 15.9798 49.6283 15.7828C49.6004 15.5859 49.5142 15.4018 49.3808 15.2542C49.2474 15.1066 49.0729 15.0023 48.8798 14.9546C48.6866 14.9069 48.4836 14.9181 48.2968 14.9867C48.1101 15.0552 47.9481 15.1781 47.8317 15.3394C47.7153 15.5007 47.6498 15.6931 47.6437 15.8919Z" fill="#263238"/>
<path id="Vector_23" d="M52.7229 20.7788L49.2 20.114L52.5248 14.4846L52.7229 20.7788Z" fill="#C8E6C9"/>
<path id="Vector_24" d="M71.9434 32.3134C76.3506 33.0771 79.0175 34.4916 80.1494 37.971C81.7552 42.9215 86.2473 56.9455 87.174 61.9313C87.7399 64.9935 88.6242 66.9313 86.028 68.9468C79.8411 73.4221 73.3818 77.5082 66.6873 81.1816C60.8016 84.265 51.9165 84.8732 51.9165 84.8732L58.3611 80.9765L59.5071 78.7912L76.7326 63.5367L70.2244 44.3147C70.2244 44.3147 68.5832 34.435 71.9434 32.3134Z" fill="#E8F5E9"/>
<path id="Vector_25" d="M76.7325 63.5366C78.1323 62.8157 79.6852 62.4421 81.2599 62.4475C81.2599 62.4475 79.7319 61.1321 76.3575 62.4475L76.7325 63.5366Z" fill="#C8E6C9"/>
<path id="Vector_26" d="M71.335 32.1437C73.3511 32.5185 75.5794 32.7377 77.6309 34.039C79.6824 35.3403 80.0574 36.9173 81.6349 41.7759C83.2124 46.6344 85.0729 53.7984 85.0729 53.7984C85.0729 53.7984 81.2104 57.0658 74.5608 57.1577C74.5608 57.1577 71.2854 48.07 70.479 46.0474C69.6725 44.0248 67.6423 37.5043 71.335 32.1437Z" fill="#455A64"/>
<path id="Vector_27" d="M64.2325 75.7997V76.4079C64.2392 76.7078 64.1669 77.0041 64.0228 77.2673C63.8788 77.5304 63.6681 77.7511 63.4119 77.9072L47.3537 87.6525C47.0934 87.7988 46.7998 87.8756 46.5012 87.8756C46.2027 87.8756 45.9091 87.7988 45.6488 87.6525L15.3998 71.0897C15.1384 70.943 14.9194 70.731 14.7645 70.4744C14.6095 70.2178 14.5237 69.9254 14.5156 69.6258V69.2156L46.4836 86.7402L64.2325 75.7997Z" fill="#4CAF4F"/>
<g id="Group" opacity="0.5">
<path id="Vector_28" opacity="0.5" d="M64.2325 75.7997V76.4079C64.2392 76.7078 64.1669 77.0041 64.0228 77.2673C63.8788 77.5304 63.6681 77.7511 63.4119 77.9072L47.3537 87.6525C47.0934 87.7988 46.7998 87.8756 46.5012 87.8756C46.2027 87.8756 45.9091 87.7988 45.6488 87.6525L15.3998 71.0897C15.1384 70.943 14.9194 70.731 14.7645 70.4744C14.6095 70.2178 14.5237 69.9254 14.5156 69.6258V69.2156L46.4836 86.7402L64.2325 75.7997Z" fill="white"/>
</g>
<g id="Group_2" opacity="0.1">
<path id="Vector_29" opacity="0.1" d="M64.2325 75.7997V76.4079C64.2392 76.7078 64.1669 77.0041 64.0228 77.2673C63.8788 77.5304 63.6681 77.7511 63.4119 77.9072L47.3537 87.6525C47.0934 87.7988 46.7998 87.8756 46.5012 87.8756C46.2027 87.8756 45.9091 87.7988 45.6488 87.6525L15.3998 71.0897C15.1384 70.943 14.9194 70.731 14.7645 70.4744C14.6095 70.2178 14.5237 69.9254 14.5156 69.6258V69.2156L46.4836 86.7402L64.2325 75.7997Z" fill="#103E13"/>
</g>
<path id="Vector_30" d="M14.5084 69.2155L31.9886 58.6074C32.1437 58.5187 32.3193 58.472 32.498 58.472C32.6766 58.472 32.8522 58.5187 33.0073 58.6074L64.1335 75.6653C64.1672 75.6853 64.1951 75.7138 64.2145 75.7479C64.2339 75.782 64.2441 75.8206 64.2441 75.8598C64.2441 75.899 64.2339 75.9376 64.2145 75.9717C64.1951 76.0057 64.1672 76.0342 64.1335 76.0543L46.4835 86.7685L14.5084 69.2155Z" fill="#4CAF4F"/>
<g id="Group_3" opacity="0.85">
<path id="Vector_31" opacity="0.85" d="M14.5084 69.2155L31.9886 58.6074C32.1437 58.5187 32.3193 58.472 32.498 58.472C32.6766 58.472 32.8522 58.5187 33.0073 58.6074L64.1335 75.6653C64.1672 75.6853 64.1951 75.7138 64.2145 75.7479C64.2339 75.782 64.2441 75.8206 64.2441 75.8598C64.2441 75.899 64.2339 75.9376 64.2145 75.9717C64.1951 76.0057 64.1672 76.0342 64.1335 76.0543L46.4835 86.7685L14.5084 69.2155Z" fill="white"/>
</g>
<path id="Vector_32" d="M46.3279 85.0783L55.7577 79.3569L27.7583 64.0105L18.2789 69.7035L46.3279 85.0783Z" fill="#4CAF4F"/>
<g id="Group_4" opacity="0.6">
<path id="Vector_33" opacity="0.6" d="M46.3279 85.0783L55.7577 79.3569L27.7583 64.0105L18.2789 69.7035L46.3279 85.0783Z" fill="white"/>
</g>
<path id="Vector_34" d="M50.9685 69.8096L50.7916 69.9157L46.1722 72.7233L37.7398 68.0982L37.563 68.0062L42.3592 65.0925L50.9685 69.8096Z" fill="#4CAF4F"/>
<path id="Vector_35" d="M50.7917 69.9158L46.1722 72.7234L37.7399 68.0983L42.3664 65.2977L50.7917 69.9158Z" fill="#4CAF4F"/>
<g id="Group_5" opacity="0.6">
<path id="Vector_36" opacity="0.6" d="M50.7917 69.9158L46.1722 72.7234L37.7399 68.0983L42.3664 65.2977L50.7917 69.9158Z" fill="white"/>
</g>
<path id="Vector_37" d="M46.4765 86.7402V87.8718C46.1779 87.8815 45.8822 87.8107 45.6205 87.6667L15.3998 71.0897C15.1384 70.943 14.9194 70.731 14.7645 70.4744C14.6095 70.2178 14.5237 69.9254 14.5156 69.6258V69.2156L46.4765 86.7402Z" fill="#4CAF4F"/>
<g id="Group_6" opacity="0.03">
<path id="Vector_38" opacity="0.03" d="M46.4765 86.7402V87.8718C46.1779 87.8815 45.8822 87.8107 45.6205 87.6667L15.3998 71.0897C15.1384 70.943 14.9194 70.731 14.7645 70.4744C14.6095 70.2178 14.5237 69.9254 14.5156 69.6258V69.2156L46.4765 86.7402Z" fill="white"/>
</g>
<g id="Group_7" opacity="0.2">
<path id="Vector_39" opacity="0.2" d="M46.4765 86.7402V87.8718C46.1779 87.8815 45.8822 87.8107 45.6205 87.6667L15.3998 71.0897C15.1384 70.943 14.9194 70.731 14.7645 70.4744C14.6095 70.2178 14.5237 69.9254 14.5156 69.6258V69.2156L46.4765 86.7402Z" fill="#103E13"/>
</g>
<path id="Vector_40" d="M46.0025 87.0018C45.7227 87.1187 45.4201 87.1705 45.1174 87.1533C44.8147 87.1362 44.5199 87.0505 44.2552 86.9028L14.1477 70.3966C13.8841 70.2505 13.6561 70.0479 13.4799 69.8033C13.3038 69.5588 13.184 69.2784 13.129 68.9822L9.45043 49.647C9.44035 49.5365 9.44035 49.4252 9.45043 49.3146C9.44354 49.0475 9.49006 48.7817 9.58724 48.5327C9.68441 48.2838 9.83031 48.0567 10.0164 47.8649L41.2699 65.0218C41.4636 65.1258 41.6315 65.272 41.7612 65.4494C41.891 65.6269 41.9793 65.8311 42.0197 66.0472L46.0025 87.0018Z" fill="#4CAF4F"/>
<g id="Group_8" opacity="0.4">
<path id="Vector_41" opacity="0.4" d="M46.0025 87.0018C45.7227 87.1187 45.4201 87.1705 45.1174 87.1533C44.8147 87.1362 44.5199 87.0505 44.2552 86.9028L14.1477 70.3966C13.8841 70.2505 13.6561 70.0479 13.4799 69.8033C13.3038 69.5588 13.184 69.2784 13.129 68.9822L9.45043 49.647C9.44035 49.5365 9.44035 49.4252 9.45043 49.3146C9.44354 49.0475 9.49006 48.7817 9.58724 48.5327C9.68441 48.2838 9.83031 48.0567 10.0164 47.8649L41.2699 65.0218C41.4636 65.1258 41.6315 65.272 41.7612 65.4494C41.891 65.6269 41.9793 65.8311 42.0197 66.0472L46.0025 87.0018Z" fill="white"/>
</g>
<path id="Vector_42" d="M46.4765 86.7402L46.2784 86.8604C46.1902 86.9146 46.0979 86.9618 46.0025 87.0019L42.0198 66.0756C41.9794 65.8595 41.891 65.6552 41.7613 65.4777C41.6315 65.3003 41.4636 65.1541 41.2699 65.0501L9.98102 47.8932C10.0991 47.766 10.2349 47.6564 10.3842 47.5679L41.7439 64.7531C41.9362 64.8606 42.1029 65.0086 42.2324 65.1869C42.3618 65.3652 42.451 65.5695 42.4937 65.7856L46.4765 86.7402Z" fill="#4CAF4F"/>
<g id="Group_9" opacity="0.6">
<path id="Vector_43" opacity="0.6" d="M46.4765 86.7402L46.2784 86.8604C46.1902 86.9146 46.0979 86.9618 46.0025 87.0019L42.0198 66.0756C41.9794 65.8595 41.891 65.6552 41.7613 65.4777C41.6315 65.3003 41.4636 65.1541 41.2699 65.0501L9.98102 47.8932C10.0991 47.766 10.2349 47.6564 10.3842 47.5679L41.7439 64.7531C41.9362 64.8606 42.1029 65.0086 42.2324 65.1869C42.3618 65.3652 42.451 65.5695 42.4937 65.7856L46.4765 86.7402Z" fill="white"/>
</g>
<path id="Vector_44" d="M41.7297 65.4391L42.1966 65.1562C42.3444 65.3394 42.4462 65.5552 42.4937 65.7857L46.4765 86.7403L46.2784 86.8605C46.1902 86.9146 46.098 86.9619 46.0025 87.0019L42.0198 66.0756C41.9749 65.8435 41.8755 65.6253 41.7297 65.4391Z" fill="#4CAF4F"/>
<path id="Vector_45" opacity="0.5" d="M41.7297 65.4391L42.1966 65.1562C42.3444 65.3394 42.4462 65.5552 42.4937 65.7857L46.4765 86.7403L46.2784 86.8605C46.1902 86.9146 46.098 86.9619 46.0025 87.0019L42.0198 66.0756C41.9749 65.8435 41.8755 65.6253 41.7297 65.4391Z" fill="white"/>
<path id="Vector_46" opacity="0.1" d="M41.7297 65.4391L42.1966 65.1562C42.3444 65.3394 42.4462 65.5552 42.4937 65.7857L46.4765 86.7403L46.2784 86.8605C46.1902 86.9146 46.098 86.9619 46.0025 87.0019L42.0198 66.0756C41.9749 65.8435 41.8755 65.6253 41.7297 65.4391Z" fill="#103E13"/>
<path id="Vector_47" d="M28.8619 69.4561C28.3588 67.8435 27.2544 66.4862 25.7776 65.6655C24.3274 64.8734 23.344 65.2695 23.5916 66.5707C23.8392 67.872 25.2187 69.5551 26.676 70.3543C28.1332 71.1534 29.1095 70.7503 28.8619 69.4561Z" fill="#455A64"/>
<path id="Vector_48" d="M64.8196 74.0883C63.136 75.2693 60.8652 74.3146 58.6298 74.5833C56.3944 74.852 54.4843 75.4037 52.6875 75.3541C50.8907 75.3046 50.0135 75.6653 51.2727 77.101C52.5319 78.5366 56.1326 77.7092 57.1088 78.1476C57.3869 78.3099 57.6243 78.5334 57.8032 78.801C57.9821 79.0686 58.0977 79.3734 58.1413 79.6923C58.185 80.0112 58.1554 80.3358 58.055 80.6416C57.9545 80.9475 57.7858 81.2264 57.5616 81.4574C56.5076 82.6808 63.5605 80.3188 64.5013 78.869C65.4422 77.4192 66.093 74.2721 64.8196 74.0883Z" fill="#E8F5E9"/>
</g>
</g>
</g>
</svg>
